<?xml version="1.0" encoding="utf-8"?>
<!-- Generator: Adobe Illustrator 16.0.0, SVG Export Plug-In . SVG Version: 6.00 Build 0)  -->
<!DOCTYPE svg PUBLIC "-//W3C//DTD SVG 1.1//EN" "http://www.w3.org/Graphics/SVG/1.1/DTD/svg11.dtd">
<svg version="1.1" id="Layer_1" xmlns="http://www.w3.org/2000/svg" xmlns:xlink="http://www.w3.org/1999/xlink" x="0px" y="0px"
	 width="76.801px" height="70.507px" viewBox="0 0 76.801 70.507" enable-background="new 0 0 76.801 70.507" xml:space="preserve">
<g>
	<g id="XMLID_4_">
		<g>
			<path fill="#F4D2B7" d="M76.801,23.548c0,1.188,0,2.373,0,3.559c-0.037,0.113-0.092,0.225-0.108,0.341
				c-0.348,2.717-1.152,5.296-2.41,7.728c-1.849,3.568-4.317,6.686-7.167,9.482c-4.646,4.562-9.368,9.046-14.06,13.563
				c-4.247,4.094-8.493,8.192-12.742,12.286c-1.055,1.017-2.632,1.069-3.724,0.091c-0.758-0.685-1.481-1.404-2.213-2.115
				c-2.406-2.33-4.803-4.666-7.211-6.991c-2.997-2.894-6.004-5.777-9.006-8.667c-1.926-1.854-3.845-3.715-5.771-5.565
				c-2.369-2.276-4.741-4.543-6.739-7.176c-2.249-2.963-3.979-6.168-4.959-9.758C0.402,29.268,0.227,28.181,0,27.107
				c0-1.227,0-2.453,0-3.681c0.079-0.462,0.177-0.92,0.232-1.384c0.473-3.878,1.774-7.403,4.399-10.363
				c1.691-1.906,3.719-3.341,6.061-4.353c2.044-0.884,4.184-1.346,6.378-1.643c4.09-0.555,7.987,0.027,11.667,1.893
				c2.542,1.291,4.83,2.968,7.02,4.78c0.907,0.753,1.769,1.557,2.679,2.36c2.201-2.219,4.661-4.07,7.241-5.769
				c2.098-1.378,4.357-2.384,6.804-2.98c2.526-0.616,5.059-0.542,7.611-0.225c3.83,0.479,7.323,1.726,10.32,4.236
				c2.941,2.465,4.75,5.614,5.646,9.298C76.402,20.68,76.559,22.124,76.801,23.548z"/>
		</g>
	</g>
</g>
</svg>
