<?xml version="1.0" encoding="utf-8"?>
<!-- Generator: Adobe Illustrator 16.0.0, SVG Export Plug-In . SVG Version: 6.00 Build 0)  -->
<!DOCTYPE svg PUBLIC "-//W3C//DTD SVG 1.1//EN" "http://www.w3.org/Graphics/SVG/1.1/DTD/svg11.dtd">
<svg version="1.1" id="Layer_1" xmlns="http://www.w3.org/2000/svg" xmlns:xlink="http://www.w3.org/1999/xlink" x="0px" y="0px"
	 width="111px" height="72.143px" viewBox="0 0 111 72.143" enable-background="new 0 0 111 72.143" xml:space="preserve">
<path fill="none" stroke="#F4D2B7" stroke-width="3" stroke-miterlimit="10" d="M13.587,22.032c0,0-2.762,7.365-2.302,12.198
	s3.222,14.799,3.222,14.799h21.405c0,0,4.143-0.391,6.214,0c2.072,0.391,10.127,5.915,14.73,6.605
	c4.603,0.691,23.937,1.151,23.937,1.151s17.032-2.664,18.413-3.864c1.381-1.2,0-7.414-1.842-9.601
	c-1.841-2.187-11.278-5.771-16.341-6.741S69.45,32.31,65.569,29.587c-3.88-2.723-18.641-14.23-18.641-14.23
	S42.356,28.016,33.15,28.016C23.944,28.016,13.587,22.032,13.587,22.032z"/>
<polyline fill="none" stroke="#F4D2B7" stroke-width="3" stroke-miterlimit="10" points="14.507,49.029 14.507,56.786 
	35.452,56.786 35.912,49.029 "/>
</svg>
