<?xml version="1.0" encoding="utf-8"?>
<!-- Generator: Adobe Illustrator 16.0.0, SVG Export Plug-In . SVG Version: 6.00 Build 0)  -->
<!DOCTYPE svg PUBLIC "-//W3C//DTD SVG 1.1//EN" "http://www.w3.org/Graphics/SVG/1.1/DTD/svg11.dtd">
<svg version="1.1" id="Layer_1" xmlns="http://www.w3.org/2000/svg" xmlns:xlink="http://www.w3.org/1999/xlink" x="0px" y="0px"
	 width="88.143px" height="85px" viewBox="0 0 88.143 85" enable-background="new 0 0 88.143 85" xml:space="preserve">
<path fill="none" stroke="#F4D2B7" stroke-width="5" stroke-linecap="round" stroke-linejoin="round" stroke-miterlimit="10" d="
	M73.402,46.624c0,16.199-13.132,29.331-29.331,29.331c-16.198,0-29.329-13.132-29.329-29.331H73.402z"/>
<path fill="none" stroke="#F4D2B7" stroke-width="5" stroke-linecap="round" stroke-linejoin="round" stroke-miterlimit="10" d="
	M56.444,37.715c-1.657-3.845-2.758-7.56-1.131-11.259c1.188-2.697,3.006-4.897,2.563-7.934c-0.468-3.201-2.896-6.201-3.058-9.478"/>
<path fill="none" stroke="#F4D2B7" stroke-width="5" stroke-linecap="round" stroke-linejoin="round" stroke-miterlimit="10" d="
	M43.375,37.715c-1.657-3.845-2.758-7.56-1.131-11.259c1.187-2.697,3.006-4.897,2.563-7.934c-0.468-3.201-2.896-6.201-3.057-9.478"/>
<path fill="none" stroke="#F4D2B7" stroke-width="5" stroke-linecap="round" stroke-linejoin="round" stroke-miterlimit="10" d="
	M29.318,37.715c-1.657-3.845-2.758-7.56-1.131-11.259c1.188-2.697,3.006-4.897,2.563-7.934c-0.47-3.201-2.896-6.201-3.058-9.478"/>
</svg>
