<?xml version="1.0" encoding="utf-8"?>
<!-- Generator: Adobe Illustrator 16.0.0, SVG Export Plug-In . SVG Version: 6.00 Build 0)  -->
<!DOCTYPE svg PUBLIC "-//W3C//DTD SVG 1.1//EN" "http://www.w3.org/Graphics/SVG/1.1/DTD/svg11.dtd">
<svg version="1.1" id="Layer_1" xmlns="http://www.w3.org/2000/svg" xmlns:xlink="http://www.w3.org/1999/xlink" x="0px" y="0px"
	 width="10.895px" height="14.526px" viewBox="0 0 10.895 14.526" enable-background="new 0 0 10.895 14.526" xml:space="preserve">
<path fill="#F4D2B7" d="M10.895,5.447C10.895,2.438,8.457,0,5.447,0C2.44,0,0,2.438,0,5.447h0.004C0.003,5.457,0,5.467,0,5.477
	v8.804c0,0.135,0.129,0.246,0.291,0.246h10.314c0.16,0,0.29-0.111,0.29-0.246V5.477c0-0.01-0.002-0.02-0.003-0.029H10.895z
	 M5.447,1.409c2.158,0,3.919,1.691,4.033,3.821H1.416C1.529,3.101,3.291,1.409,5.447,1.409z M7.09,12.335H3.806l0.676-1.657
	c-0.484-0.318-0.806-0.864-0.806-1.484c0-0.979,0.794-1.771,1.771-1.771c0.979,0,1.772,0.793,1.772,1.771
	c0,0.62-0.32,1.166-0.806,1.484L7.09,12.335z"/>
</svg>
