<?xml version="1.0" encoding="utf-8"?>
<!-- Generator: Adobe Illustrator 16.0.0, SVG Export Plug-In . SVG Version: 6.00 Build 0)  -->
<!DOCTYPE svg PUBLIC "-//W3C//DTD SVG 1.1//EN" "http://www.w3.org/Graphics/SVG/1.1/DTD/svg11.dtd">
<svg version="1.1" id="Layer_1" xmlns="http://www.w3.org/2000/svg" xmlns:xlink="http://www.w3.org/1999/xlink" x="0px" y="0px"
	 width="88.143px" height="85px" viewBox="0 0 88.143 85" enable-background="new 0 0 88.143 85" xml:space="preserve">
<path fill="none" stroke="#F4D2B7" stroke-width="5.6359" stroke-linecap="round" stroke-linejoin="round" stroke-miterlimit="10" d="
	M45.25,20.542c0,0-8.353-1.196-10.938,1.986c-2.585,3.182-8.75,5.966-8.75,17.103c0,11.138,5.568,14.121,5.568,18.695
	s-1.447,3.381-2.188,9.347c0,0,3.977,11.535,16.308,12.132"/>
<path fill="none" stroke="#F4D2B7" stroke-width="5.6359" stroke-linecap="round" stroke-linejoin="round" stroke-miterlimit="10" d="
	M37.268,20.833c0,0-5.739-10.238-5.342-13.42c0.397-3.182-3.58,5.037-3.978,9.082c-0.398,4.044,2.394,9.977,2.394,9.977"/>
<path fill="none" stroke="#F4D2B7" stroke-width="5.6359" stroke-linecap="round" stroke-linejoin="round" stroke-miterlimit="10" d="
	M29.684,27.204c0,0-5.912-3.284-10.287-3.284c-4.375,0-13.722,6.364-13.722,6.364s3.978,7.16,9.745,8.552
	c5.768,1.392,10.143,2.188,10.143,2.188"/>
<path fill="none" stroke="#F4D2B7" stroke-width="5.6359" stroke-linecap="round" stroke-linejoin="round" stroke-miterlimit="10" d="
	M45.25,20.542c0,0-8.353-1.196-10.938,1.986c-2.585,3.182-8.75,5.966-8.75,17.103c0,11.138,5.568,14.121,5.568,18.695
	s-1.447,3.381-2.188,9.347c0,0,3.977,11.535,16.308,12.132"/>
<path fill="none" stroke="#F4D2B7" stroke-width="5.6359" stroke-linecap="round" stroke-linejoin="round" stroke-miterlimit="10" d="
	M37.268,20.833c0,0-5.739-10.238-5.342-13.42c0.397-3.182-3.58,5.037-3.978,9.082c-0.398,4.044,2.394,9.977,2.394,9.977"/>
<path fill="none" stroke="#F4D2B7" stroke-width="5.6359" stroke-linecap="round" stroke-linejoin="round" stroke-miterlimit="10" d="
	M29.684,27.204c0,0-5.912-3.284-10.287-3.284c-4.375,0-13.722,6.364-13.722,6.364s3.978,7.16,9.745,8.552
	c5.768,1.392,10.143,2.188,10.143,2.188"/>
<path fill="none" stroke="#F4D2B7" stroke-width="5.6359" stroke-linecap="round" stroke-linejoin="round" stroke-miterlimit="10" d="
	M45.25,20.542c0,0-8.353-1.196-10.938,1.986c-2.585,3.182-8.75,5.966-8.75,17.103c0,11.138,5.568,14.121,5.568,18.695
	s-1.447,3.381-2.188,9.347c0,0,3.977,11.535,16.308,12.132"/>
<path fill="none" stroke="#F4D2B7" stroke-width="5.6359" stroke-linecap="round" stroke-linejoin="round" stroke-miterlimit="10" d="
	M37.268,20.833c0,0-5.739-10.238-5.342-13.42c0.397-3.182-3.58,5.037-3.978,9.082c-0.398,4.044,2.394,9.977,2.394,9.977"/>
<path fill="none" stroke="#F4D2B7" stroke-width="5.6359" stroke-linecap="round" stroke-linejoin="round" stroke-miterlimit="10" d="
	M29.684,27.204c0,0-5.912-3.284-10.287-3.284c-4.375,0-13.722,6.364-13.722,6.364s3.978,7.16,9.745,8.552
	c5.768,1.392,10.143,2.188,10.143,2.188"/>
<path fill="none" stroke="#F4D2B7" stroke-width="5.6359" stroke-linecap="round" stroke-linejoin="round" stroke-miterlimit="10" d="
	M44.952,20.542c0,0,8.353-1.196,10.938,1.986c2.586,3.182,8.751,5.966,8.751,17.103c0,11.138-5.568,14.121-5.568,18.695
	s1.446,3.381,2.187,9.347c0,0-3.978,11.535-16.308,12.132"/>
<path fill="none" stroke="#F4D2B7" stroke-width="5.6359" stroke-linecap="round" stroke-linejoin="round" stroke-miterlimit="10" d="
	M52.935,20.833c0,0,5.739-10.238,5.342-13.42c-0.398-3.182,3.58,5.037,3.978,9.082c0.397,4.044-2.395,9.977-2.395,9.977"/>
<path fill="none" stroke="#F4D2B7" stroke-width="5.6359" stroke-linecap="round" stroke-linejoin="round" stroke-miterlimit="10" d="
	M60.519,27.204c0,0,5.912-3.284,10.287-3.284s13.723,6.364,13.723,6.364s-3.978,7.16-9.745,8.552
	c-5.768,1.392-10.143,2.188-10.143,2.188"/>
</svg>
