<?xml version="1.0" encoding="utf-8"?>
<!-- Generator: Adobe Illustrator 16.0.0, SVG Export Plug-In . SVG Version: 6.00 Build 0)  -->
<!DOCTYPE svg PUBLIC "-//W3C//DTD SVG 1.1//EN" "http://www.w3.org/Graphics/SVG/1.1/DTD/svg11.dtd">
<svg version="1.1" id="Layer_1" xmlns="http://www.w3.org/2000/svg" xmlns:xlink="http://www.w3.org/1999/xlink" x="0px" y="0px"
	 width="88.143px" height="85px" viewBox="0 0 88.143 85" enable-background="new 0 0 88.143 85" xml:space="preserve">
<g>
	<path fill="none" stroke="#F4D2B7" stroke-width="5" stroke-linecap="round" stroke-linejoin="round" stroke-miterlimit="10" d="
		M31.211,12.542c0,0,1.512,5.273,1.512,7.173c0,1.901-12.603,13.549-12.603,27.387c0,13.838,10.839,28.563,10.839,28.563H44.4
		h-0.755h13.44c0,0,10.839-14.727,10.839-28.563c0-13.837-12.604-25.484-12.604-27.387c0-1.9,1.513-7.173,1.513-7.173h3.276H43.645
		H44.4H27.935"/>
	
		<polyline fill="none" stroke="#F4D2B7" stroke-width="5" stroke-linecap="round" stroke-linejoin="round" stroke-miterlimit="10" points="
		27.334,27.561 30.959,38.145 45.388,44.102 34.236,49.313 42.807,58.542 37.117,65.6 	"/>
</g>
</svg>
