<?xml version="1.0" encoding="utf-8"?>
<!-- Generator: Adobe Illustrator 16.0.0, SVG Export Plug-In . SVG Version: 6.00 Build 0)  -->
<!DOCTYPE svg PUBLIC "-//W3C//DTD SVG 1.1//EN" "http://www.w3.org/Graphics/SVG/1.1/DTD/svg11.dtd">
<svg version="1.1" id="Layer_1" xmlns="http://www.w3.org/2000/svg" xmlns:xlink="http://www.w3.org/1999/xlink" x="0px" y="0px"
	 width="512px" height="512px" viewBox="0 0 512 512" enable-background="new 0 0 512 512" xml:space="preserve">
<g>
	
		<path fill="none" stroke="#F4D2B7" stroke-width="29.2281" stroke-linecap="round" stroke-linejoin="round" stroke-miterlimit="10" d="
		M420.531,264.518c0,86.904-71.066,157.355-158.734,157.355c-87.677,0-158.752-70.451-158.752-157.355
		c0-86.896,71.076-157.348,158.752-157.348C349.465,107.17,420.531,177.621,420.531,264.518z"/>
	
		<path fill="none" stroke="#F4D2B7" stroke-width="29.2281" stroke-linecap="round" stroke-linejoin="round" stroke-miterlimit="10" d="
		M261.797,421.873c60.892,0,113.758-33.983,140.376-83.881l-51.591-88.559l-34.891,59.907l-53.895-92.528l-53.902,92.528
		l-34.903-59.907l-51.581,88.559C148.039,387.89,200.896,421.873,261.797,421.873z"/>
	
		<line fill="none" stroke="#F4D2B7" stroke-width="29.2281" stroke-linecap="round" stroke-linejoin="round" stroke-miterlimit="10" x1="66.754" y1="454.583" x2="146.232" y2="375.812"/>
</g>
<g>
	<path fill="#F4D2B7" d="M159.907,429.597l20.858,12.819l-3.177,5.172l-15.222-9.355l-4.868,7.921l14.179,8.712l-3.177,5.17
		l-14.179-8.713l-4.77,7.767l15.22,9.354l-3.271,5.327l-20.859-12.818L159.907,429.597z"/>
	<path fill="#F4D2B7" d="M191.686,467.4l-4.838-21.556l7.361,2.833l3.209,16.438l13.407-10.042l7.36,2.833l-18.043,12.746
		l4.877,21.6l-7.361-2.832l-3.381-16.283l-13.332,9.848l-7.359-2.832L191.686,467.4z"/>
	<path fill="#F4D2B7" d="M226.394,459.604l11.34,2.125c7.371,1.384,12.048,6.261,10.768,13.095
		c-1.267,6.757-7.364,9.454-14.736,8.073l-4.887-0.916l-2.811,15l-6.451-1.21L226.394,459.604z M234.903,476.832
		c4.455,0.835,6.611-0.351,7.146-3.22c0.553-2.941-1.048-4.992-5.453-5.815l-4.887-0.917l-1.695,9.037L234.903,476.832z"/>
	<path fill="#F4D2B7" d="M259.979,464.659l6.611,0.116l-0.544,30.532l15.722,0.28l-0.113,6.246l-22.331-0.397L259.979,464.659z"/>
	<path fill="#F4D2B7" d="M289.763,483.236c-1.626-9.897,2.456-19.597,14.46-21.57c12.007-1.975,18.978,5.905,20.607,15.804
		c1.626,9.897-2.455,19.6-14.461,21.576C298.364,501.017,291.392,493.135,289.763,483.236z M317.938,478.604
		c-1.127-6.842-4.973-12.411-12.759-11.13c-7.792,1.281-9.651,7.791-8.527,14.63c1.13,6.865,4.977,12.435,12.766,11.156
		C317.208,491.979,319.068,485.467,317.938,478.604z"/>
	<path fill="#F4D2B7" d="M331.015,456.261l11.136-4.203c6.432-2.427,13.303-0.817,15.737,5.639
		c1.636,4.338,0.051,8.693-3.342,11.504l15.359,11.711l-7.091,2.676l-14.031-11.515l-1.995,0.754l-2.146,0.808l5.555,14.717
		l-6.188,2.336L331.015,456.261z M348.245,466.513c3.236-1.387,4.538-3.828,3.563-6.411c-1.075-2.852-3.99-3.865-7.523-2.531
		l-4.946,1.866l3.45,9.139L348.245,466.513z"/>
	<path fill="#F4D2B7" d="M364.191,442.502l20.963-12.64l3.133,5.197l-15.299,9.224l4.802,7.961l14.253-8.593l3.13,5.197
		l-14.251,8.592l4.706,7.807l15.3-9.224l3.229,5.352l-20.967,12.639L364.191,442.502z"/>
	<path fill="#F4D2B7" d="M423.373,433.039l3.354-5.876c3.621,2.842,7.341,1.911,10.05-0.897c2.729-2.827,2.714-5.81,0.841-7.615
		c-5.489-5.295-16.012,9.284-24.625,0.973c-4.683-4.517-3.635-10.848,0.666-15.307c3.144-3.256,7.44-4.861,12.415-3.57l-1.398,6.282
		c-2.683-0.816-5.231-0.237-6.947,1.544c-1.807,1.871-2.074,4.433-0.389,6.059c4.98,4.808,15.656-9.627,24.437-1.152
		c5.002,4.825,4.021,11.871-0.856,16.926C436.404,435.09,429.39,437.219,423.373,433.039z"/>
	<path fill="#F4D2B7" d="M428.723,387.844l3.753-5.443l25.146,17.338l8.929-12.944l5.144,3.546l-12.684,18.394L428.723,387.844z"/>
	<path fill="#F4D2B7" d="M460.754,373.296c-9.123-4.147-14.913-12.926-9.882-23.993c5.029-11.065,15.45-12.475,24.573-8.328
		c9.122,4.146,14.911,12.925,9.879,23.989C480.296,376.032,469.877,377.442,460.754,373.296z M472.558,347.323
		c-6.304-2.864-13.067-2.767-16.332,4.416c-3.263,7.18,1.11,12.342,7.412,15.204c6.329,2.878,13.095,2.779,16.356-4.401
		C483.259,355.363,478.886,350.2,472.558,347.323z"/>
	<path fill="#F4D2B7" d="M467.732,296.176l32.492,22.625l-1.124,4.816l-39.164,5.994l1.662-7.122l27.628-3.74l-23.133-15.525
		L467.732,296.176z"/>
	<path fill="#F4D2B7" d="M468.241,288.258l0.999-24.454l6.059,0.248l-0.724,17.846l9.286,0.379l0.677-16.624l6.062,0.246
		l-0.675,16.625l9.104,0.371l0.726-17.849l6.242,0.255l-0.994,24.457L468.241,288.258z"/>
	<path fill="#F4D2B7" d="M464.443,224.974l36.382-5.573l1.004,6.54l-23.231,19.159l25.564-3.917l0.963,6.284l-36.382,5.572
		l-0.993-6.488l23.099-19.189l-25.438,3.896L464.443,224.974z"/>
	<path fill="#F4D2B7" d="M460.752,212.767l-1.986-6.31l35.104-11.04l1.983,6.311L460.752,212.767z"/>
	<path fill="#F4D2B7" d="M450.182,184.988l-2.154-4.449l26.708-29.223l3.11,6.417l-5.91,6.131l6.14,12.673l8.484-0.814l3.144,6.487
		L450.182,184.988z M467.759,168.201l-9.928,10.307l14.254-1.381L467.759,168.201z"/>
</g>
<g>
	<path fill="#F4D2B7" d="M5.614,255.03l1.639-16.917c1.065-10.999,7.612-18.5,17.809-17.511
		c10.082,0.978,14.839,9.571,13.773,20.569l-0.706,7.294l22.379,2.168l-0.932,9.623L5.614,255.03z M29.784,240.294
		c0.644-6.644-1.377-9.654-5.655-10.068c-4.392-0.426-7.189,2.194-7.826,8.764l-0.707,7.293l13.48,1.305L29.784,240.294z"/>
	<path fill="#F4D2B7" d="M16.876,188.286l6.332-16.344c3.659-9.44,12.175-15.394,21.653-11.721
		c6.366,2.467,9.586,8.485,9.335,14.969l27.938-5.337l-4.032,10.405l-26.422,4.076l-1.136,2.932l-1.219,3.146l21.597,8.369
		l-3.52,9.083L16.876,188.286z M45.055,179.463c1.655-4.91,0.262-8.742-3.529-10.211c-4.185-1.621-8.163,0.58-10.172,5.766
		l-2.813,7.26l13.409,5.196L45.055,179.463z"/>
	<path fill="#F4D2B7" d="M66.015,143.228c-11.584-9.166-16.758-23.777-5.641-37.829C71.49,91.346,86.9,93.018,98.486,102.181
		c11.583,9.166,16.758,23.776,5.641,37.831C93.01,154.063,77.6,152.393,66.015,143.228z M92.105,110.247
		c-8.003-6.333-17.719-8.587-24.931,0.532c-7.212,9.118-2.784,18.052,5.221,24.385c8.034,6.355,17.749,8.61,24.963-0.508
		C104.569,125.537,100.141,116.602,92.105,110.247z"/>
	<path fill="#F4D2B7" d="M114.896,65.681l-13.85,9.836l-5.04-7.098l35.611-25.292l5.042,7.097l-13.822,9.815l26.337,37.083
		l-7.941,5.641L114.896,65.681z"/>
	<path fill="#F4D2B7" d="M158.454,29.807l33.875-12.313l3.052,8.395l-24.721,8.987l4.677,12.865l23.026-8.371l3.051,8.397
		l-23.025,8.371l4.584,12.612l24.72-8.987l3.145,8.649l-33.874,12.313L158.454,29.807z"/>
	<path fill="#F4D2B7" d="M227.11,43.439l-2.045-32.998l9.684-0.6l1.977,31.887c0.541,8.729,3.139,13.448,11.829,12.909
		c8.728-0.542,10.685-5.543,10.144-14.271l-1.978-31.887l9.725-0.603l2.021,32.616c0.846,13.626-4.822,22.625-19.331,23.523
		S227.933,56.684,227.11,43.439z"/>
	<path fill="#F4D2B7" d="M287.996,48.174l9.964-0.365c-0.745,6.743,3.31,10.677,8.935,11.887c5.659,1.22,9.379-1.117,10.185-4.867
		c2.368-10.983-24.065-12.832-20.35-30.076c2.018-9.372,10.758-12.981,19.68-11.058c6.521,1.404,11.868,5.536,14.117,12.767
		l-8.952,3.132c-1.063-3.994-3.768-6.732-7.328-7.5c-3.747-0.808-7.163,0.85-7.892,4.222c-2.148,9.972,24.22,12.121,20.433,29.703
		c-2.154,10.01-11.738,14.26-21.86,12.08C295.555,66.082,287.438,58.96,287.996,48.174z"/>
</g>
</svg>
