<?xml version="1.0" encoding="utf-8"?>
<!-- Generator: Adobe Illustrator 16.0.0, SVG Export Plug-In . SVG Version: 6.00 Build 0)  -->
<!DOCTYPE svg PUBLIC "-//W3C//DTD SVG 1.1//EN" "http://www.w3.org/Graphics/SVG/1.1/DTD/svg11.dtd">
<svg version="1.1" id="Layer_1" xmlns="http://www.w3.org/2000/svg" xmlns:xlink="http://www.w3.org/1999/xlink" x="0px" y="0px"
	 width="383px" height="373.333px" viewBox="0 0 383 373.333" enable-background="new 0 0 383 373.333" xml:space="preserve">
<g>
	
		<path fill="none" stroke="#24806E" stroke-width="16.9112" stroke-linecap="round" stroke-linejoin="round" stroke-miterlimit="10" d="
		M305.207,195.453c0,62.535-50.689,113.236-113.236,113.236c-62.533,0-113.234-50.702-113.234-113.236
		c0-62.535,50.702-113.237,113.234-113.237C254.518,82.216,305.207,132.918,305.207,195.453z"/>
	<path fill="none" d="M276.61,45.083C192.343,0.738,88.076,33.095,43.736,117.389c-44.339,84.258-11.969,188.538,72.306,232.878
		c84.268,44.341,188.539,11.965,232.875-72.315C393.266,193.676,360.882,89.419,276.61,45.083z"/>
	<text transform="matrix(0.8518 0.5239 -0.5239 0.8518 95.6318 338.1768)"><tspan x="0" y="0" fill="#24806E" font-family="'HKGrotesk-Bold'" font-size="39.4594">E</tspan><tspan x="31.01" y="-0.551" fill="#24806E" font-family="'HKGrotesk-Bold'" font-size="39.4594" rotate="-10.476">X</tspan><tspan x="63.201" y="-7.305" fill="#24806E" font-family="'HKGrotesk-Bold'" font-size="39.4594" rotate="-20.887">P</tspan><tspan x="90.246" y="-18.307" fill="#24806E" font-family="'HKGrotesk-Bold'" font-size="39.4594" rotate="-30.312">L</tspan><tspan x="113.946" y="-32.452" fill="#24806E" font-family="'HKGrotesk-Bold'" font-size="39.4594" rotate="-40.946">O</tspan><tspan x="141.054" y="-57.256" fill="#24806E" font-family="'HKGrotesk-Bold'" font-size="39.4594" rotate="-52.249">R</tspan><tspan x="159.773" y="-82.491" fill="#24806E" font-family="'HKGrotesk-Bold'" font-size="39.4594" rotate="-62.572">E</tspan><tspan x="172.867" y="-109.658" fill="#24806E" font-family="'HKGrotesk-Bold'" font-size="39.4594" rotate="-70.216"> </tspan><tspan x="178.161" y="-124.364" fill="#24806E" font-family="'HKGrotesk-Bold'" font-size="39.4594" rotate="-77.512">S</tspan><tspan x="183.758" y="-152.44" fill="#24806E" font-family="'HKGrotesk-Bold'" font-size="39.4594" rotate="-86.827">L</tspan><tspan x="185.038" y="-179.904" fill="#24806E" font-family="'HKGrotesk-Bold'" font-size="39.4594" rotate="-97.294">O</tspan><tspan x="179.445" y="-216.312" fill="#24806E" font-family="'HKGrotesk-Bold'" font-size="39.4594" rotate="-108.949">V</tspan><tspan x="168.015" y="-247.272" fill="#24806E" font-family="'HKGrotesk-Bold'" font-size="39.4594" rotate="-119.668">E</tspan><tspan x="152.136" y="-274.13" fill="#24806E" font-family="'HKGrotesk-Bold'" font-size="39.4594" rotate="-130.688">N</tspan><tspan x="128.795" y="-299.568" fill="#24806E" font-family="'HKGrotesk-Bold'" font-size="39.4594" rotate="-139.443">I</tspan><tspan x="114.871" y="-311.534" fill="#24806E" font-family="'HKGrotesk-Bold'" font-size="39.4594" rotate="-147.805">A</tspan></text>
	<path fill="none" d="M351.346,196.612c0.591,82.437-65.737,149.744-148.188,150.308C120.738,347.511,53.45,281.154,52.85,198.733
		c-0.578-82.411,65.775-149.709,148.184-150.304C283.47,47.838,350.755,114.205,351.346,196.612z"/>
	<text transform="matrix(0.0959 -0.9954 0.9954 0.0959 51.9502 199.6953)"><tspan x="0" y="0" fill="#24806E" font-family="'HKGrotesk-Bold'" font-size="58.1394">P</tspan><tspan x="38.807" y="0.568" fill="#24806E" font-family="'HKGrotesk-Bold'" font-size="58.1394" rotate="15.465">R</tspan><tspan x="78.709" y="11.905" fill="#24806E" font-family="'HKGrotesk-Bold'" font-size="58.1394" rotate="32.707">O</tspan><tspan x="118.923" y="39.526" fill="#24806E" font-family="'HKGrotesk-Bold'" font-size="58.1394" rotate="49.402">T</tspan><tspan x="143.921" y="69.661" fill="#24806E" font-family="'HKGrotesk-Bold'" font-size="58.1394" rotate="64.771">E</tspan><tspan x="160.865" y="106.894" fill="#24806E" font-family="'HKGrotesk-Bold'" font-size="58.1394" rotate="81.172">U</tspan><tspan x="166.529" y="151.253" fill="#24806E" font-family="'HKGrotesk-Bold'" font-size="58.1394" rotate="96.879">S</tspan></text>
	
		<path fill="none" stroke="#24806E" stroke-width="16.9112" stroke-linecap="round" stroke-linejoin="round" stroke-miterlimit="10" d="
		M191.971,308.689c43.444,0,81.154-24.465,100.145-60.379l-36.799-63.728l-24.899,43.115l-38.447-66.588l-38.44,66.588
		l-24.898-43.115l-36.795,63.728C110.829,284.225,148.536,308.689,191.971,308.689z"/>
	
		<line fill="none" stroke="#24806E" stroke-width="16.9112" stroke-linecap="round" stroke-linejoin="round" stroke-miterlimit="10" x1="52.848" y1="332.228" x2="109.542" y2="275.537"/>
	<path fill="#24806E" d="M283.349,45.085c0,3.722-3.019,6.737-6.737,6.737c-3.725,0-6.742-3.016-6.742-6.737
		c0-3.722,3.017-6.737,6.742-6.737C280.33,38.348,283.349,41.363,283.349,45.085z"/>
	<path fill="#24806E" d="M314.081,62.806c0,3.721-3.018,6.732-6.74,6.732s-6.743-3.011-6.743-6.732c0-3.72,3.021-6.74,6.743-6.74
		S314.081,59.086,314.081,62.806z"/>
	<path fill="#24806E" d="M330.819,92.118c0,3.717-3.021,6.737-6.744,6.737c-3.72,0-6.739-3.02-6.739-6.737
		c0-3.724,3.02-6.735,6.739-6.735C327.799,85.383,330.819,88.394,330.819,92.118z"/>
	<path fill="#24806E" d="M47.192,280.802c1.76-3.283,5.847-4.508,9.126-2.756c3.276,1.769,4.51,5.856,2.751,9.135
		c-1.762,3.279-5.852,4.508-9.136,2.744C46.66,288.174,45.429,284.079,47.192,280.802z"/>
	<path fill="#24806E" d="M31.284,249.745c1.762-3.279,5.847-4.503,9.128-2.75c3.279,1.764,4.508,5.853,2.751,9.13
		c-1.762,3.274-5.849,4.508-9.135,2.744C30.756,257.117,29.525,253.025,31.284,249.745z"/>
	<path fill="#24806E" d="M24.311,215.345c1.764-3.277,5.851-4.509,9.135-2.751c3.271,1.764,4.503,5.846,2.746,9.137
		c-1.764,3.275-5.849,4.504-9.125,2.74C23.783,222.708,22.556,218.628,24.311,215.345z"/>
</g>
</svg>
